<svg width="16" height="15" viewBox="0 0 16 15" fill="none" xmlns="http://www.w3.org/2000/svg">
<path d="M4.45956 0.0291014C2.46209 0.174576 0.730386 1.57896 0.176465 3.5009C0.0198002 4.04643 -0.00258042 4.21429 0.000217164 4.8941C0.000217164 5.43963 0.00860991 5.56272 0.0645616 5.8173C0.246404 6.67336 0.601697 7.40912 1.13604 8.04138C1.25353 8.17846 2.84256 9.78427 4.66658 11.6083L7.98452 14.9234L11.4088 11.4964C13.5853 9.31708 14.8917 7.98822 14.9981 7.84555C15.4429 7.24686 15.7254 6.63699 15.8849 5.92641C16.1758 4.61154 15.9101 3.23513 15.1463 2.1133C14.9225 1.78319 14.5393 1.36355 14.2399 1.12016C12.8831 0.0123159 11.0563 -0.289823 9.41688 0.322848C8.96087 0.4935 8.59998 0.692128 8.18874 0.999863L7.98731 1.15093L7.86702 1.05302C7.34947 0.633379 6.54096 0.258503 5.83038 0.110231C5.60657 0.0654699 4.8764 -0.0100648 4.78129 0.00112553C4.7673 0.00392311 4.62182 0.0151134 4.45956 0.0291014ZM5.74645 0.873971C6.51858 1.05581 7.14244 1.39432 7.73833 1.95664L7.9985 2.20003L8.26987 1.93985C8.84897 1.38593 9.50081 1.03623 10.2785 0.859983C10.5331 0.804032 10.6478 0.795639 11.1318 0.795639C11.7557 0.795639 11.9487 0.823615 12.4579 0.994267C13.6552 1.39152 14.6204 2.35669 15.0176 3.55126C15.1687 4.01006 15.2051 4.21988 15.2219 4.74023C15.2331 5.14028 15.2275 5.26897 15.1799 5.55153C15.0764 6.15301 14.8694 6.67616 14.5281 7.19091C14.3742 7.42311 13.9881 7.82317 11.171 10.6431L7.98452 13.8324L4.8764 10.7271C2.67471 8.52536 1.71234 7.54341 1.56966 7.35597C1.14723 6.80205 0.878658 6.14182 0.780743 5.42564C0.478604 3.22114 1.9921 1.1845 4.19939 0.823615C4.58545 0.75927 5.36878 0.787246 5.74645 0.873971Z" fill="white"/>
</svg>
