<svg width="27" height="25" viewBox="0 0 27 25" fill="none" xmlns="http://www.w3.org/2000/svg">
<path d="M7.96807 1.04484C4.84702 1.26904 2.14123 3.43349 1.27573 6.39559C1.03094 7.23636 0.995968 7.49507 1.00034 8.5428C1.00034 9.38357 1.01345 9.57328 1.10088 9.96564C1.38501 11.285 1.94015 12.419 2.77506 13.3934C2.95864 13.6047 5.4415 16.0795 8.29153 18.8908L13.4758 24L18.8263 18.7183C22.227 15.3595 24.2683 13.3115 24.4345 13.0916C25.1295 12.1689 25.5709 11.2289 25.8202 10.1338C26.2747 8.10731 25.8595 5.98598 24.6661 4.25701C24.3164 3.74825 23.7177 3.1015 23.2499 2.72638C21.1299 1.01897 18.2755 0.55331 15.7139 1.49756C15.0014 1.76057 14.4375 2.0667 13.7949 2.54098L13.4802 2.77381L13.2922 2.62291C12.4836 1.97615 11.2203 1.39839 10.11 1.16988C9.76027 1.10089 8.61938 0.984475 8.47077 1.00172C8.44891 1.00603 8.2216 1.02328 7.96807 1.04484Z" fill="#F96868" stroke="#F9F9F9"/>
</svg>
