<svg width="188" height="190" viewBox="0 0 188 190" fill="none" xmlns="http://www.w3.org/2000/svg">
<g id="Group 1">
<path id="Subtract" fill-rule="evenodd" clip-rule="evenodd" d="M138.861 105.345H187.894C182.867 152.789 142.723 189.752 93.947 189.752C45.1706 189.752 5.02736 152.789 0 105.345H48.1757C52.9154 126.222 71.4169 141.793 93.5182 141.793C115.62 141.793 134.121 126.222 138.861 105.345ZM139.068 85.2029H187.894C182.867 37.7597 142.723 0.796722 93.947 0.796722C45.1706 0.796722 5.02736 37.7597 0 85.2029H47.9684C52.3517 63.846 71.0797 47.7956 93.5182 47.7956C115.957 47.7956 134.685 63.846 139.068 85.2029Z" fill="white" fill-opacity="0.2"/>
<circle id="Ellipse 2" cx="93.9978" cy="94.7946" r="25.8974" fill="white" fill-opacity="0.2"/>
</g>
</svg>
